<svg xmlns="http://www.w3.org/2000/svg" width="480pt" height="290pt" viewBox="0 0 480 290" version="1.1" xmlns:xlink="http://www.w3.org/1999/xlink">
  <g id="surface2" transform="matrix(1.0370844019614482,0,0,1.0370844019614482,-8.863172068786128,-0.8196934020291673)" data-tpl_matrix="1,0,0,1,0,0">
    <path style="stroke:none;fill-rule:evenodd;fill:rgb(88.235294%,10.196078%,17.254902%);fill-opacity:1" d="M 248.949219 98.601562 L 216.25 62 C 212.050781 64.398438 208.285156 67.382812 204.949219 70.949219 C 201.648438 74.484375 198.917969 78.484375 196.75 82.949219 C 194.617188 87.417969 193.199219 92.234375 192.5 97.398438 C 191.699219 104 192.148438 110.316406 193.851562 116.351562 C 195.550781 122.382812 198.285156 127.851562 202.050781 132.75 C 205.816406 137.648438 210.398438 141.699219 215.800781 144.898438 C 221.199219 148.066406 227.199219 150.101562 233.800781 151 C 239.199219 151.699219 244.433594 151.515625 249.5 150.449219 L 266.949219 163.898438 L 209.851562 98.648438 L 248.949219 98.601562"/>
    <path style="stroke:none;fill-rule:evenodd;fill:rgb(100.000000%,76.078431%,5.490196%);fill-opacity:1" d="M 287.449219 109.699219 C 288.25 103.101562 287.800781 96.785156 286.101562 90.75 C 284.398438 84.714844 281.667969 79.25 277.898438 74.351562 C 274.132812 69.449219 269.535156 65.417969 264.101562 62.25 C 258.699219 59.050781 252.714844 57 246.148438 56.101562 C 239.285156 55.265625 232.714844 55.785156 226.449219 57.648438 L 210.351562 49.199219 L 275.101562 108.800781 L 232.800781 108.300781 L 261.199219 146.449219 C 265.832031 144.148438 270 141.167969 273.699219 137.5 C 277.367188 133.867188 280.382812 129.699219 282.75 125 C 285.148438 120.300781 286.714844 115.199219 287.449219 109.699219"/>
  </g>
  <g id="surface4">
    <text style="fill:rgb(65,64,66)" font-family="Albertus Medium" font-size="38" transform="matrix(1,0,0,1,149.4,216.3)" xml:space="preserve"><![CDATA[FlubuCore]]></text>
  </g>
</svg>